<?xml version="1.0" encoding="UTF-8"?>
<svg id="Ebene_2" data-name="Ebene 2" xmlns="http://www.w3.org/2000/svg" viewBox="0 0 270.75 265.31">
  <defs>
    <style>
      .cls-1 {
        fill: #fff;
      }

      .cls-1, .cls-2, .cls-3 {
        stroke: #355968;
        stroke-miterlimit: 10;
        stroke-width: .25px;
      }

      .cls-2 {
        fill: none;
      }

      .cls-3 {
        fill: #8cc8c7;
      }
    </style>
  </defs>
  <g id="Ebene_1-2" data-name="Ebene 1">
    <g>
      <path class="cls-3" d="M.12,83.49c1.76-.17.58.41.54,1.28-.04.76-.27,2.69.03,3.15.19.29,1.25.23,1.63.51.47.35.16,1.16.4,1.42.46.49,2.36.14,2.81,1.46.65,1.88-.03,9.68.06,12.42.04,1.32.51,2.53.54,3.95.1,4.08-.12,8.18-.02,12.26H.12v-2.5l3.92-.07c1.1-1.34.07-3.03.22-4.09.08-.58.77-1.14.88-2.54.21-2.69.35-5.79-2.03-7.53l.1-.66c1.09-.12.98-.52.9-1.57h-1.5s.97-2.68.97-2.68l-2.46-2.06,1.5-2.25,1.48,1v-2.49s-3.48-.5-3.48-.5l1,1.24-1.5,2.25v-11.98Z"/>
      <path class="cls-2" d="M.12,95.47l1.5-2.25-1-1.24,3.49.5v2.49s-1.48-1-1.48-1l-1.5,2.25,2.46,2.06-.97,2.68h1.5c.08,1.05.2,1.45-.9,1.57l-.1.66c2.38,1.75,2.24,4.84,2.03,7.53-.11,1.4-.8,1.96-.88,2.54-.15,1.06.88,2.75-.22,4.09l-3.92.07v-21.96Z"/>
      <path class="cls-3" d="M114.91,46.05c1.58-.1.43-1.04,1.74-.99.77.3.47,3.46,1.23,4.76.61,1.04,3.09,2.54,4.31,2.7l22.67-1.48-.24-.99c-.52.08-1.44,1.22-1.26-.25.26-2.07,4.85-10.41,3.95-11.69-.68-.36-3.05-.72-3.35-1.15-.25-.37-.06-1.38-.56-2.17s-1.99-1.3-2.76-2.24c-2.91-3.56-5.44-8.01-8.26-11.71l2.49.25c-.89-2.26,1.27-3.44,1.49-4.77.13-.79-.67-5.02-.49-5.21l2.2.44c1.13-.26.78-2.49.79-3.43l-2.49,2.49-1-5.49h4.49c.43-1.99-2.36-.46-3.39-1.11-.46-.29-.2-1.94-1.84-.88l-.26-1c1.53.6,1.72-1.31,2.28-1.46.66-.17,1.72.83,2.46.75,1-.1,2.31-2.08,3.26.95l-.98,1.94,1.96,1.32c-1.66,2.35-.78,5.26-1.03,7.95l-2.96.53-.5-1.5-1,1.99,3.49.5-3.55.73c-.74.87.45,2.87-.03,4.43-.39,1.25-1.74.87-1.9,1.84l8.28,1.96.45-.95,1.49,1.37,2.26-.87-1.99-2.49c2.03.88,3.5-.09,5.14-.36,2.13-.35,7.43-.91,9.86-.89,2.01.01,5.03,1.66,6.27-.76l1.68.52c-3.93,5.05-7.07,11.6-11.74,15.96-1.07,1-2.74,1.22-3.22,2.77l2.98.25-1.92.56-.58,9.92c-1.14-.99-.9.9-2.48.5l2.99,1.49c-14.89,1.14-29.77,2.07-44.7,2.97-2.28.14-1,.29-3.48.04-1.87-.19-6.06,1.07-8.39.57-1.84,1.04-.43,2.55,1.04,2.83,1.9.36,4.89-1.03,7.07-.37.34,1.47.51,3.28-.71,4.45h-8.48l-.53-1.01c1.23-.78.73-5.3-.02-5.51-3.14.14-6.3-.09-9.45,0-3.94.12-8.47.84-12.44,1.04-5.46.28-12.72-.24-17.96.53-2.08.3-2.77,2.55-3.75,4.24l-3.52-.29c-.33,7.7.3,15.45.31,23.13,0,6.49-.51,13.17-.36,19.55.06,2.38.32,4.87.55,7.23l1.25-2.49,1.14.8,1.07,11.45c.79.55,8.65,1.08,10.31,1.18,1.45.09,2.44-1.38,2.94.55l.73-.02c-.33-1.42,2.21-1.19,3.25-.97,1.09.23,1.61,1.34,1.99,1.35.18,0,2.14-1.06,3.48-.88l.28,1.51c1.24-1.61,2.36-2.09,4.48-1.99.66,2.08-1.01,1.49-.99,2.99h2.99s.07-2.16.07-2.16c.1-.45.35-.62.76-.76,1.35-.47,7.62,1.15,9.65.43v1.49c-.99.02-1.78-.39-1.5,1,.99.11,2.28-.23,3.19.07.8.26.69,2.17,1.8,1.43.04-.03-.29-.6-.17-.99.12-.37.67-.66.67-.75v-24.71h.5v21.96l8.49.5v2.5s1.49,0,1.49,0c.13-.23.22-6.2,1.5-4.5.18.57.63,3.86.74,4.03.27.44,2.18-.3,1.77,1.96,1-.49.76-1.84,2.49-1.5l-1.5-.5c-.35-1.9,3.57-1.82,4.68-1.43.34.12,2.5,3.75,2.31,3.93l-3.99-.5.08,1.92,2.57.61,1.3-1.78c2.46-.25,3.31,1.49,4.53,3.24-.3.39-8.58,1.52-9.73,1.55-2.01.05-4.91-1.78-5.25.96-2.46-4.02-6.82-.78-10.46-2l-.76,2c-1.25-3.89-3.88-1.86-6.49-1.95-1.19-.04-2.28-.53-3.47-.56-11.22-.28-22.49.25-33.71.02l-.5,6.49c-1.74.2-1.24-1.55-1.74-2.49l-2.28,1.83,1.03,2.66-2.69.04-.88-7.7-.75-.75-34.05-1.64c.15-1.67-.78-5.29,1.43-5.43l-.76-.99c-.75-1.84,3.6-.53,4.06-.55.43-.01,6.86-1.16,5.44.55l-1.75.99,4.25.99.5-.99-2.02-.99.52-1.01c.83.46,3.86.34,4.16.58.27.22.04,2.09,1.31,1.92l.25-2.5h17.22l.63-.73c-.55-1.77-.47-3.71-.4-5.53.61-16.19.81-32.72,1.04-48.88.03-1.84-.39-8.79.23-9.75.31-.49,1.4-.55,1.67-1.33.45-1.31-.15-3.68.07-5.16l-1.99,1-.29-2.06-7.4-.78-2.79,1.84v-1.99s-15.16-.44-15.16-.44c-1.12.39-.43,2.5-1.55,1.93-.65-.33-.67-1.49-.75-1.49h-10.48l1.88-.87,18.37-.6-.85-28.44-1.46-.31c-.51-2.5.73-1.99,1.24-2.72.26-.37-.46-.91.05-1.01.8-.16,1.26.99,1.44,1.53,2.1,6.44,7.65,14.48,11.57,20.39,1.04,1.57,3.9,6.42,4.84,7.39.74.76,1.47,1.12,1.86-.09.96-3.02,2.15-3.8,3.34-5.9.78-1.38.35-3.61,2.48-4.82.16-.09,3.26-1,3.44-1.02.25-.02,4.61.11,4.89.14,1.09.14,3.4,1.53,3.08,2.85h2.73s1-1.5,1-1.5c-.66,2.58-2.47,4.97-4,7.12-.25.35-1.02.34-1.02.64.02.66.78,1.29.8,1.95.12,2.93-.01,8.07-.25,11.03-.11,1.41-1.64,1.99-.21,2.65,7.39-.56,14.9.12,22.15-1.43.49-2.17-2.66.53-2.44-1.67.11-1.04,6.22-9.23,5.43-10.3-1.04-.49-4.17-.81-4.74-1.5-.43-.52-.35-1.59-.72-2.15-.32-.48-1.2-.68-1.74-1.37-2.85-3.62-5.24-7.62-7.77-11.45l13.86,2.61c.72,2.26,3.64,3.03,3.12,5.37l2.49-.5-.51-.99c2.11.82,3.79-3.6,2.99.49l5,.5-.51-.99c1.93.28,2.43-2.5,3.75-.52l1-1.99,1.25,1.25-.99,1.24,2.67.07.8,2.19,4.5,1.23-.99-1.99,1.49.49-1-1.49,1-.25-1.5-1.74,2.49.53.26,1.96,1.73-1.99c1.4,1.71.38,1.94.26,4.01.46,1.07,1.62.47,1.68.54.84,1.04.47,5.43.56,6.92l-.74-.99c-.65,1.58-1.11,1.02-2.24,1.75l.99,1.74-2.49-1.01c.75-.97,1.29-2.14,2-3.12.43-.59,2.05-.24.24-1.85l-2.5,2.98-1.24-1.49.75,3.49-1.64-1.87-.85-3.11c-1.87,1.34-1.99,4.18.75,4-.94,1.71.19,2.04.49,2.99-.73.05-1.77.16-2.28-.49.13-1.43-.41-3.18-1.7-4v2.7s-1,.54-1,.54l2,.76-.5,1.49c2.08-1.07,2.11,1.41,3.99,1.5.23-.99-.23-1.67-.5-2.49ZM57.52,35.07c-1.66-.36-6.41,4.6-5.48,5.49,3.57.91,4.76-2.6,5.48-5.49Z"/>
      <path class="cls-3" d="M222.22,60.02l-2.49-.5c-.12.1.98,2.99-.99,2.49l-.83-3.04-7.44-.92c.07-3.77-.39-7.55-.43-11.26-.04-4.08,2.6-9.54-4.21-8.17l-1.31,1.93-.31-2.45c-.61-.71-16.83-1.41-18.67-1.06-1.4.27-1.05,1.69-2.48,2.02-2.07.48-.58-1.63-2.49-2.02-2.39-.49-12.34-.02-14.88.61s-.79.65-3.58.65c-.93,0-3.36.93-3.75-.24,2.42-.59,11.68-.74,13.01-2.22.63-.7,2.26-5.47,2.72-6.76,1.95-5.49,6.44-17.63,7.12-22.85.28-2.17-1.38-4.19,1.06-4.66l-.45-1.45h1.47c.57,1.77.85,4.04,1.59,5.66,1.52,3.34,9.24,13.27,11.92,16.53,2.36,2.88,2.85,3.18,5.05,6.44s5.98,6.08,9.41,8.31l-1.99-3.99c2.1-.07,1.94,2.76,3.49,3.49l-.51-1.71c1.26-.46,1.14-.99,1.02-2.29l1.99,1-.49-1.99,1.71.52c.47-1.77,1.39-.29,2.77-1.02-.29.99-.29,2.2-.53,3.12-.49,1.83-1.4,4.96-2.22,7.35s-4.65,10-4.62,11.85c0,.41,1.99,3.01,2.38,3.38,1.73,1.65,5.8,1.44,7.98,2.75.54-1.97-.65-4.51-.49-6.19s2.4-3.85,1.5-6.29c1.54,2.09,8.77,3.89,10.2,1.97l5.66-20.34c.36-2.75-1.43-7.59.6-9.59.12,1.36-.2,2.88.03,4.21.64,3.7,14.54,22.87,17.74,26.18,1.73,1.79,4.35,2.81,5.69,5.04-1.86.37-3.99-.86-5.74-.52-1.44.28-.78,1.42-1.74,1.52-.04-.42.12-1.05-.1-1.38-.5-.79-10.58-.85-12.16-.64s-2.35,1.69-2.96,1.52c-.48-.13-.52-1.37-1.1-1.51-1.11-.28-10.44.1-11.05.6-.3.25-.06,1.56-.84,1.91l-.25-2-3.88,1.25c.01.23.39.39.39.5v52.16h8.48c.56,1.97-3.07.55-3.5,1v1.99c.96.25,2.25-.43,3.06-.24,1.17.27,2.05,2.51,2.67.23h1c.72.29.38,1.84,1.49,1.51.66-.19-.44-1.95,1.25-1.5l.29,1.53c1.38-.4,3.23,1.07,3.71-.52l-1-1,2.77.48-.28,1.51c2.21.94,2.28-1.77,3.31-1.96.21-.04,2.99,1.28,4.18.47l-1,1.99c2.03,1.09,4.97-1.32,5.73-1.33,1.21-.01,1.48,1.47,2.16,1.83.95.51,4.19.09,3.09-.99l-2.49-1,5.99-.51c-.22-1.47-2.77-.79-3-1-.29-.7.5-1.49.5-1.75v-14.48c0-.4.73-.59,1.14-.62,2.18-.2,5.09.54,7.34.37v11.48l-1.19-.42-.8,1.91,1.99-.5v15.97l-1.75-1.51c-.08,3.02-.57,4.89-2.73,7,.99-3.48-2.1-3.55-1.51-6.49l-1.5,3.99-.5-2.49c-2.61.12-1.73,2.85-2.25,4.49l-.75-4.99-.5,1.49-1.24-1.49c-1.95,1.32-3.27,2.38-3.25,4.98-1.78-.55-.31-4.29-2.49-3.99l-.5,3.99-1.5-6.98v2.5s-.92-.39-.92-.39l-.08.88h-.99c.09-1.02.05-1.13-1-.99l-.48,1.79-1.52-.3-.37,2.88-1.13.62c.15-1.31.09-6.16-1.75-5.98-.85.08-.39,2.54-1.49,1.98l-.76-1.99-.77,1.03-1.72-.53c-.12,1.73-1.68,2.17-1.01,4.49l-.99-1.49-.49,3.27c-1.78-.96-2.89,1.9-2.47,3.41s2.64-.79,2.49,1.26l.7.04c1.21-2.22,2.81-2.76,5.19-1.94l.32,3.94c-1.73,1.85-2.63-1.41-3.01-1.51l-1.22.03c.22,2.17-1.14,1.48-1.53,1.81-3.1,2.56-3.83,2.01-7.11,3.28-1.79.69-3.95,2.95-6.34,2.37.39-2.82-2.71-5.3-.51-7.47-.46-.31-3.14.64-3.49-1,.97.24,1.98-.98,2.66-.91s1.26,1.01,2.46.83c1.29-.19,3.8-4.47,3.86-.42,1.77-.34,3.37-.29,3.81-2.35.09-.42-.36-1.11-.31-1.14.51-.42,1.97.32,2.68-2.62.6-2.48-1.75-3.49-2.95-2.43-1.51,1.33.31,3.72-1.72,3.54v-3.99s-.75,1.49-.75,1.49l-.83-3.41-1.4-.59c-1.14,2.4-1.17,4.99-1.76,7.49s-1.25,1.74-2.2-.22c.54-2.51,1.42-7.38-1.53-8.27l-.76,2.99c-.21.09-.97-2.51-2.24-1.99.7,2.17-.69,3.75-.97,5.27-.24,1.29-.05,2.55-.46,4.05-.23.85.36,1.39-1.06,1.15-1.03-2.93,1.54-5.91-1.75-7.98l-1.49,1.48c-.86-.6-.6-1.69-1.05-2.47-.4-.71-3.27-1.94.33-2.79.27-5.68-.47-11.85-.06-17.47.07-.89-.14-1.62.77-2.21.96.61.66,1.36.76,2.23.32,2.8,1.11,5.33.69,8.27,3.26,1.4,6.28,1.79,9.78.98v-50.92ZM172.81,36.06h19.21c.17,0,.37-.35.64-.37.71-.05,2.63.88,2.1-.37-.19-.45-2.83-5.03-3.09-5.19-.32-.2-1.24.67-1.65-.03-.89-1.32-.08-6.06-2.74-3.52-.13-.73-.21-2.38-.62-2.87-.47-.56-4.61-1.19.15-1.86.96,1.84,2.03,2.57,2.85,4.61.44,1.1.68,1.23.58-.08-2.61-6.43-3.98-13.97-6.73-20.26-.24-.55-.01-1.27-.97-1-.62.18-2.49,11.09-2.9,12.58-1.31,4.66-3.25,9.6-5.04,13.93-.61,1.47-1.06,3-1.8,4.44ZM239.93,52.54c2.85.55,7.19-.4,10.23,0,.03-1.86-1.83-2.74-2.73-4.03-.54-.78.1-2.16-1.76-2.71l.02-.72c2,.2-.36-4.54-.88-5.89-.38-1.01-.81-2.04-1.26-3.25-1.08-2.89-1.93-6.63-3.87-8.86,1.12,3.73-.88,7.29-1.78,10.96-.53,2.17-.13,4.2-1.71,6.23l2.48,2.28c-1.27.06-1.83.35-2.24-.99l-1.79,4.67c.06.28,5,2.26,5.28,2.31Z"/>
      <path class="cls-3" d="M228.43,190.07c.49.54,1.04.62.78,1.74l3.25-1.5c.23.43-.29,1.75-.52,2-.7.81-2.1-.08-1.73,1.49l2.49-.5v1.5s2.5-1,2.5-1l-1.99-1.74.89-.36c.23-.31-.82-1.96.85-1.9.41,1.64,1.15.53,1.75.82.38.18,2.84,1.65,2.93,1.79.1.15-.69,2.01,1.31,2.89l.99-.99.26,1.99c1.43-1.34,2.44-1.8,4.49-1.49-.05.74.32,1.02-.39,1.48-.39.25-2.27,1.28-2.58,1.32-1.47.18-1.38-.74-2.51-1.3l1,2.24-2.01.77,1,1.49-3.48.75c.55.95,1.01.42,1.65.49,2.06.2,4.24.18,6.33.27.34,1.56-1.26.69-1.52,2.24-.16.94-.06,2.11.77,2.75l.25-2.99,2.47.03.47,2.42-.94.54,1.49,1-2.18.57-2.81,2.43c1.1.38,2.11-.86,2.83-.91s1.28,1.12,2.31.87c.87-.21,1.15-1.73,2.34-1.45l-3.51,3.72-2.98,1.02,2.99.75-1.5,2.98c5.68,1.3-.49,3.84-2.67,5.45-3.37-2.17-3.29-6.39-7.81-7.7l1.5-2.97c-1.18-1.5-.93-.11-1.45.4-1.2,1.18-1.87-.14-2.05-1.34.9-.92,2.41-1.25,2-2.81-2.8,1.17-2.41-2.4-3.5-4.23l2.51-1.26c-1.4-.1-4,.68-3.99-1.5,3.56,1.32,2.58-.43,4.12-1.16.46-.21,3.99.31,2.36-1.09-1.41-1.21-4.79-.4-5.73-3.25l-1.26.5-.25,2c-.7-2.42-3.74.29-5.39-.09-1.01-.23-1.99-1.86-1.86-2.92l-1.99.51c-.16.93.95.23,1.39.58.15.12.7,2.31.6,2.4l-1.65-.31-3.83,1.05,2.49.76-1,1.49,2,1-1.49,1,4.25-.99.24.98-4.49,1.01,2.49,1.24c-1.27,1.08-3.35.99-2.99,3.25l4.49-1.49c.05,1.62-2.41,2.01-2.5,2.25-.5,1.29,2.45.34,2.5,1.73l-3.49,2.76,2,.25.28,2-3.77,2.49,3.44-.45.55,1.95c-1.71-.64-1.86,1.8-2.8,1.97-.53.1-1.2-.9-1.96-.97-.8-.08-1.67.55-2.48.51-2.17-.12-4.67-1.48-6.59.67-.22.25-.04,1.05-.23,1.21-.49.41-3.19.28-4.43,1.84-.18.23-1.95,3.79-1.99,4.01-.22,1.44,2.13.19,1.5,1.5-.59,1.24-3.47.55-3.99,1.75l5.98-.49v1.48c-1.19.74-3.89.06-4.52.29-.91.33-3.3,3.03-1.97,4.22l-4.49.75,2.5.5c-1.51,1.07-3.02,2.29-4.99,2.25l1.99.5-.99,1.24,1.99.75c1.55,1.66-7.67,2.83-8.48,3.5l5.48,1.24-8.48,6.5c-.1,1.77,1.89-.03,2.73-.17.35-.06,3.28,0,3.25.66l-4.91,2.31-.07,1.43,1.99.24-3.97,1.78.49,1.97h-1.98c.18-.99-.54-2.53-.16-3.36.9-2.01,4.87-.5.65-5.23-.68-.76-3.72-2.55-3.49-3.63.89-1.64,4.6.63,4.41-1.92-.17-2.24-5.99-4.06-6.9-6.59-.48-2.11,4.73-.46,3.98-1.97-3.57-1.83-4.46-3.3-5.85-7.01l1.86-2.48c-1.88-1.11-2.37-3.42-3.79-5.22-.24-.3-2.38-.94-.84-1.53h1.14c-.89-1.69.24-2.71,1.99-1.99l-1-2.23c1.1-1.64,2.78-.04,4.22-.24.94-.13,3.93-1.85,6-2.04,1.5-.14,4.65-.42,5.26,1.01h-4.99c-.01.68,2.42.95,2.8.95,1.54,0,7.05-.78,8.45-1.39.38-.17,1.77-.99,1.48-1.56-.61-1.19-2,1.23-2.75.25l2.91-2.54c-.82-2.88,1.35-5.46.58-8.69,1.4-.23.76.22.99.76.61,1.37,2.25,4.8,2.39,6.08.06.59-1.17,1.89-.38,3.14,1.44.44.88-1.18,1.78-1.41.36-.09,1.07.33,1.73.19,1.91-.41,5.03-2.18,2.48,1.22l1.93-.06v-2.86c-.94-.6-5.38.97-5.42-1.31,1.24-1.11,4.41,1.07,4.92-.58.82-2.62-1.44-3.4-1.36-4.33l2.42-3.59-2.47-1,1.97-.78c-.53-.94-.34-1.54.49-2.22l-1.98-1.97c.52-1.78,2.33-3.22,1.51-5.26h3.5s.26-1.5.26-1.5c1-.37.64,1,1.02,1.02.85.05,3.47-.91,3.71-2.02l-2.49.49c-.01-2.26,2.88-1.36,4.49-1.5l.08,2.93,2.92,1.06-.55-1.77,1.07-1.01-.52-1.2h1.5c-1.49,3.73,1.41,4.16,3.37,6.15.48.49-.59,1.82,1.62,1.33l-.5-2.5-1.43.44-2.07-2.68.89-.37c-.18-1.19-.2-1.88,1.1-2.37l1.03,1.25-1.01,1.49,1.49.75,1.03-2.22-1.02-1.52.98-.74c-.06.3.03.52.23.75Z"/>
      <path class="cls-3" d="M109.81,196.9c.49.78-.11,3.29.11,4.39l1.26-.44c.48,1.66,2.26.78,3.72.95.83-2.11-1.01-2.58-1.01-2.75,0-2.3,5.25-1.36,6.5-.74-1.57,1.47-.18,1.61-.13,2.36s-.23,1.39-.16,2.15c.14,1.36,1.21,2.55.29,4.47l1.4.07c1.56,2.25-1.43,4.72.59,5.18l-1.49,2.25h2c-.88,1.01.31,1.84.32,2.25.01.62-1.46,1.12-1.12,3.27.23,1.45,1.12,1.48,1.18,1.61.18.43-.37,1.08-.16,1.39.3.44,1.51.49,2.06.94,1.23,1,.94,3.69,1.17,5.18-3.36,3.19-8.35,2.43-12.68,2.3-1.52-.05-2.82,1.3-3.74-.95l4.5-1.25c-2.74-2.06-4.16-.62-6.8-.31-.7.08-10.29.57-8.17,2.55l2.99.99c-1.98.6-4.68.75-6.48,1.76-1.49.83.87.59.49,1.24l-4.14.45c-1.4-1.36-2.93-2.69-3.34-4.69l2.5-1.73c-2.12.46-2.11-1.73-4.5-1.01l-1-1c-.2-1.29.12-.78.7-1.04,1.03-.47,2.64-.79,3.79-.96-1.42-2.38-3.18-.23-4.38.46-1.05.6-2.41-.05-1.86,1.55l-3.27.17-.25-3.17,3.77-1.5-1.48-1.24,3.97-5.49-2.98-1,3.49-2.25-2.49-.5c-.09-.82,1.13-.56,1.49-1.25.54-1.02-2.05-.88-1.91-2.4,1.3-1.45.82-3.21,1.11-4.48.18-.78,1.32-2.44,1.2-3.14-.09-.53-2.28-.76-1.4-1.7.5-.54,3.66-.07,3.99-1.5-1.1-.35-4.38.92-4-1,2.53.13,5.63-2.52,6.46,1.28l-.97.71,1.98.75-.99,1.24h5.99s-.34-1.24-.34-1.24l.65-.68c2.41-.33,7.61.29,9.67-.81,1.03-.55-.43-1.45-.98-1.53-.74-.12-3.9,2.37-4.02.53l4.78-1.73c-.7-2.32-.22-5.81,2.07-2.78l-1.32,2.97c.14.56,1.17.61,1.34.88Z"/>
      <path class="cls-3" d="M55.27,220.76c-4.32-.16-1.94-1.47-2.27-1.96-.17-.25-5.34-1.9-1.47-3.78-1.95-.61-.91-2.73-3-2.25l.5-1.49-4.99,1,.51,1.49-2.5.76,2,1.24-3.99,1.01c-.63.93,2.09,2.03,1.99,2.24l-3.49,2.24c1.34.29,2.6-.33,3.81-.43.56-.05,1.79-.46,1.68.43l-6.75,1.99c-.97,1.19,1.73,1.73,1.75,2.26l-3.48,2,.99,1.24-6.99,2,.5-1.49-3.49-1c-.42-1.75,2.73-1.69,2.99-2,1.55-1.84-2.59.27-1.99-1.24l1.95-1.5-.92-1c1.89-1.04,1.68-1.54,1.97-3.48l-1.5-.27,1.5-1.99c-.42-.34-2.86,1.37-2.99,0,2.15-.36,2.44-3.33,3.99-4.75l-2.99-.25v-3.49s5.49,0,5.49,0l-1-1.49h2s-1-1.5-1-1.5c1.12-.31,1.84.9,2.74.95,2.29.14,2.86-2.32-.74-.96l.48-1.76c2.07.28,3.82-1.44,5.38-1.65,1.65-.22,4.1.83,5.91-.56.59-.8-.64-4.02-.66-4.65-.05-1.35,1.33-3.62,1.27-4-.1-.62-1-1.04-.95-2.58.05-1.86,2.31-3.07-.21-3.75.78-2.68,3.51.78,5.53.94.1,0,.58-1.46,1.48-1.33.64.1,3.24,3.11,5.23.62.22-1-2.26-1.84-1-2.5l4.74-.75-.11,1.01-1.13.99c5.05.05,1.08,2.79,1.07,3.24,0,.23,1.01,1.08,1.21,1.72.18.6,1.7,7.41,1.73,7.81.08.95-.87,1.73-1.04,2.92-.44,3.08,1.37,4.8,1.26,7.53-.05,1.33-.89,2.53-.69,3.91l3.45,1.33c.21.83-.87.2-1.01.83-.12.57.15,1.26.02,1.83-.12.51-1.49.09-1,1.33,2.2.25,3.8,1.92,3.99,4-5.46.93-10.74,3.18-16.48,2.99l-.99-1,1.3-.94,8.68-2.05c-2.73-.07-5.5.1-8.23,0ZM56.88,188.39c-.55.15-2,1.55-1.86,2.17,4.91,3.98,5.85-3.28,1.86-2.17ZM48.04,202.79l-7.54.73-.4,1.7c1.61.01,5.64,2.66,1.95,2.56v1.49c2.86.46,4.53-.37,6.98-1.52-.09-1.97-2.02-2.98-.99-4.96Z"/>
      <path class="cls-3" d="M148.35,203.79c-.33-2.4,1.37-1.93,1.27,0-.53,1.31-2.81-.05-2.77,1.73,1.44.63,1.59,1.12,1.54,2.71l3.2.53.26-1.49,2.5.5c.23.78-2.96,1.69-1.99,2.49.72.59,1.63-1.84,2.48-.25-.74.32-1.15,5-.99,5.22s4.32.69,3.43,3.45l-1.42.81,1.52,1.08-.99,2.85c.65,2.07,4,.75,4.73,1.8l-.29,1.72,1,.29v.98s-1,.26-1,.26c-.31.89,2.32,1.8,2.45,1.71.27-.17.25-1.86,1.55-1.46v2.49c-.45.2-2.1-1.22-2.49.5,1.47-.2,1.62.02,1.54,1.44l1.96.07-1,1.24c2.23,1.11,2.09,3.35.68,5.27l-5.21-.26-.03-1.66c-1.74-1.02-3.56-1.82-5.56-1-2.6,1.07,3.8,2.3,4.62,2.4l-3.72,1.47-1.06-1.95-2.7.47.99-1.49c-1.21,0-2.01-.87-3.22-1.03-4.75-.63-3,1.85-5.79,3.74-1.03.69-2.27,1.02-3.47,1.28-.48,2.28,3.45-.1,3.99.49l.04,1.98,1.47.03c-2,1.16-.32,5.26-.5,5.48-.77.9-1.28-.86-1-1.5-.17-.17-2.88,1.09-3,1.36-.15.33-.59,3-.48,3.11.15.15,2.27-.03,2.42,1.86.21,2.76-5.81.26-6.94-1.07s-1.63-3.16-.99-4.75l-1.25,1.5-.33-1.44-1.42-.06c.53-2.26-.47-5.44,3-4.49-1.61-2.93-.43-5.8,1.5-8.24l-3.99,1.25.22-2.52.6-.44c2.07.23,5.05.7,6.17-1.53-1.6-.61-2.73-.13-4.2-.05-.52.03-1.15-.48-1.5-.46-.28.02-2.1,4.24-2.79-.98,1.58-.39,8.42.2,9.23-.49,1.37-1.16-.01-2.61-1.25-2.25-.4.12-.61,1.03-1.49.73-.2-.21.24-1.36.48-1.65.12-.14,2.68-1.85,3.05-2.06,1.93-1.13,3.3.03,3.86-3.52.35-2.2-1.02-3.72-1.4-5.74h1.5c-1.05-2.04.4-3.04.49-4.99l-2.99.49,1.49-1.24c-.65-.81-1.85-.39-1.49-1.74l4.49-1.01c.4-1.67-1.74-1.01-2.49-1.74l2.25-3.74,1.24,1.5Z"/>
      <path class="cls-3" d="M180.79,119.43l-1,5.49h-2.5s0-2,0-2c-1.41.66-.37,2.52-2.49,2l.28.99c2.21.86,4.04-1.48,5.49,1.02l-.52,4.98c2.56.32,1.35-2.51,2-3.99.35-.8,2.17-1.88,2.74-2.75l-.99-.74h1.5s-2-4-2-4c-.39,1.14.97,4.85-1,4.49l-.5-5.49h7.74c1.18,0,.64,3.18.24,3.99l-2.24-2.49c-2.9,1.8-.97,5.14-1.24,7.98.9,0,.51-1.44.96-2.15s1.92-.76,1.77-2.83c1.15,1.41-.16,2.47,2.28,2.77l-1.03,4.71c1.55.29,2.64-2.61,3.98-.75l-2.48,1.74,2.95-.03c.45-.83,0-2.46.49-3.15.37-.52,1.25-.1,1.59-.6.44-.63,0-2.2.95-2.2l.26,2,2.24-1-.9,2.25c.58,1.2,1.68,1.16,2.84,1.33l.07,1.39c1.05.05,1.91-.29,3-.23.76.04,2.38-.03,1.97,1.25l-19.67-.5c-2.97.95-1.21,4.01-5.28,2.99l-.07-2.16-.75-.8c-3.6,1.06-6.89-.29-10.42-.53-2.3-.16-4.74.19-7.01.02-1.28-.09-2.11-1.29-3.71-.53.07-1.48,1.7-1.51,2.21-3.01.34-1.01.11-2.77.77-3.26l10.99.29v-3.5c-2.78,2.43-2.62-.66-2.49-3h8.98Z"/>
      <path class="cls-3" d="M187.78,192.81h-1.5s1.53,1.27,1.53,1.27l-1.07,7.93,1.83.76c-.61,2.24.87,3.29.76,5.48l1.05.05c1.48,1.16-.68,1.73-.95,2.13-.45.67-.62,1.46-1.15,2.1-2.12,2.56-2.63,1.34-5.23,1.77-1.18.19-1.9,1.39-3.76.47l1.5-1.74-1.98-1.55.98-1.45-1.05-.97c-.17-1.06,1.1-2.2,1.08-3.01,0-.25-.95-.22-1.04-.59-.37-1.55,1.46-3.01-.48-3.42.24-.48,1.23-.57,1.39-.84,1.15-2.02-2.62-2.23.11-3.16l-.02-.74-1.01-.29c1.33-1.54-.21-4.5.07-5.41.18-.59,1.14-.62,1.33-.92.45-.7.21-4.64,1.38-4.88,1.51.99,4.72,1.32,5.52,3.01.46.97-.65,1.33-.68,1.75-.03.52,1.75,1.18,1.38,2.24Z"/>
      <path class="cls-3" d="M187.28,72.01v11.73c0,.15.63.38.5.75h-9.48v-11.73l.82-.66,8.16-.09Z"/>
      <rect class="cls-3" x="178.3" y="94.47" width="8.98" height="11.98"/>
      <path class="cls-3" d="M187.28,50.54v11.23c0,.15.69.71.5,1.25h-8.98v-12.48h8.48Z"/>
      <path class="cls-3" d="M60.01,96.96h5.99c-.8,3.3.26,6.64,0,9.99h-6.49c-.25-.19.5-.64.5-.75v-9.23Z"/>
      <path class="cls-3" d="M51.03,165.35l-1.49.25,2.99,1.26-1.98,1.8c-.25.91.72,1.43.83,2.02.3,1.61-1.89,6.89,1.14,7.16l1-1.5,1,2.24-5.49,1.25c-.47,2.42,2.58-.43,2.49,1.24l-3.49,1.75c-.19-1.83-.1-3.14,1.48-4.24l-1.99-.76c.99-3.11-.1-6.46.18-9.65.1-1.12,1.12-2.08.34-3.29,1.14-.34,2.43-1.08,2.97.46Z"/>
      <path class="cls-3" d="M216.17,131.96c2.54,4.56,6.71,7.56-1.94,7.94v-1.7s-1.25-.3-1.25-.3l-1.5,2.48c-2.25-2.66.82-6.06-2.25-8.47,2.5.75,4.44.33,6.93.05Z"/>
      <path class="cls-3" d="M60.01,78.49h3.49s-1,2.24-1,2.24c.14.89,2.39.5,3,.26v7.49h-5.99c-.25-.18.5-.64.5-.75v-9.23Z"/>
      <path class="cls-3" d="M258.15,99.46v8.24c0,.2.69.74.5,1.24-.34.46-4.45.68-4.99-.24v-8.99l.81-.71,3.68.46Z"/>
      <path class="cls-3" d="M258.15,81.49v8.74c0,.11.75.56.5.74h-4.99s0-9.48,0-9.48h4.49Z"/>
      <path class="cls-3" d="M258.15,65.52v8.74c0,.11.75.57.5.74l-4.99-.5c-.24-.19.5-.63.5-.74v-8.74l3.99.5Z"/>
      <path class="cls-3" d="M180.29,153.37c.67-1.51.17-1.92-.5-3.23l2-.77c.19-.2-.49-1.24-.46-1.77.14-2.46.69-5.61.97-8.46.07-.73-.43-1.46.73-1.25l2.11,2.74c-1.94,2.23-.18,5.99-.5,7.92-.12.72-3.52,5.72-4.35,4.81Z"/>
      <path class="cls-3" d="M120.9,86.48h-2.5s.47-4.71.47-4.71l1.53-.29c.27-1.41-.47-.9-1.44-1.02l-.05-2.97-1.5.35-1.49,2.15-.5-2.49v6.48s.5-2.5.5-2.5h1.49s.03,4.69.03,4.69l-2.53.81v-9.98l5.99-.5v9.98Z"/>
      <path class="cls-3" d="M92.93,106.93l-2-.23-.48-5.25,2-.49c-2.21.13-2.13-1.14-2-3l-.57,2.42-2.45.36-.48-3.78,6.27.48-.3,9.49Z"/>
      <path class="cls-3" d="M63.2,180.17c.22.29.97,0,.81.4-1.28,1.65-2.97,1.96-4.99,1.75-.12-1.47.95-2.05,1.99-2.74l-1.5-1.02c-.27-.87.87-1.66,1-2.51.16-1-1.18-6.26,1.79-3.75,1.08.91.48,2.17.73,3.26.17.76,1.01,1.5.93,1.96-.18.97-2.11.85-.76,2.66Z"/>
      <path class="cls-3" d="M120.4,113.44c-.21,2.22-2.05,1.93-2.74,0-.61.32-.28,1.36-1.48,1.53-2.37.32-.27-1.8-2.26-1.52l.28,2h2.71s0,1.98,0,1.98h-4.99s1.99,2,1.99,2h-2.5s.48-6.26.48-6.26c2.99-1.02,5.55-.59,8.5.28Z"/>
      <path class="cls-3" d="M243.17,129.91l2.02,4.48h1.48s-.99-1.48-.99-1.48l1.74-1.51c.55,1.07.88,1.65,2.24,1.5l-1.5,1,.99.74c-.62,1.05-2.14.89-2.84,1.4-.86.63-1.01,3.11-2.57,1.02-.45-.61-2.44-4.02-2.5-4.54-.1-.83,1.08-3.31,1.92-2.62Z"/>
      <path class="cls-3" d="M40.55,189.32c-.68,2.25.92,3.81,2.01,5.2.13.89-3.36,5.5-4.01,4.78,1.39-3.36-.62-2.85-.95-3.8-.42-1.2.96-7.24,2.94-6.17Z"/>
      <path class="cls-3" d="M97.88,20.15c.43,1.94.19,8.96-3.12,7.88l-.84-1.22c1.62-2.82.71-4.78.04-7.72l3.93,1.06Z"/>
      <path class="cls-3" d="M35.56,106.95c-.56-1.97,3.05-.55,3.5-1-.18-1.22.32-3.12-.06-4.19-.31-.88-1.53-.46-1.43-1.3,3.91.68,4.92,1.14,4.49-3.5l-3.49-.49h3.7s.29,5.49.29,5.49l-1.76-.03-.23,4.02,1.99-2.49.5,3.49h-7.49Z"/>
      <path class="cls-3" d="M60.01,60.52h2.49c-.74,2.87-.83,6.05.12,8.86l2.88.38c.32,1.17-1.06.71-1.74.74-1.25.06-2.51-.04-3.75,0v-9.98Z"/>
      <polygon class="cls-3" points="86.96 78 89.46 77.99 89.49 80.72 87.96 81.24 89.49 82.76 89.39 87.16 86.96 87.98 86.96 78"/>
      <path class="cls-3" d="M217.22,97.96h1.99c.07,2.41-.07,4.84-.02,7.26.03,1.39,1.35,4.02-1.72,3.22-1.13-.3-.25-1.18-.25-1.24v-9.23Z"/>
      <polygon class="cls-3" points="114.91 96.47 118.91 97.21 117.37 97.73 117.44 100.19 115.91 100.46 117.44 101.73 117.41 105.95 114.91 105.45 114.91 96.47"/>
      <path class="cls-3" d="M142.36,14.1c4.49.4,1.39,5.68,2.99,8.48l-2.99-.74v-7.74Z"/>
      <path class="cls-3" d="M219.22,64.52v8.74c0,.15.48.31.49.5l-.73.73-1.75-.48v-9.48h2Z"/>
      <polygon class="cls-3" points="219.22 81.49 219.22 91.47 217.22 90.97 217.22 81.49 219.22 81.49"/>
      <path class="cls-3" d="M89.96,101.45v5.49s-2.99.5-2.99.5c.78-2.03-.27-3.86,0-5.99h3Z"/>
      <path class="cls-3" d="M109.42,56.53v20.47c-.92.07-.27-1.1-1-1.74-.51-.45-2.02-.48-2.49-1.5l2.2.2.79-.7v-14.98c0-.5-3.6-1.04.5-1.75Z"/>
      <path class="cls-3" d="M23.58,75v1.49c-.08.1-2.61-.96-2.49.25.1.96,2.44.11,1.98,1.74l-2.99.51-.25-2-.33,1.76-1.42.24c.81-3.66,1.56-4.53,5.49-3.99Z"/>
      <path class="cls-3" d="M159.33,128.41l-.04,3.46c-1.18.02-3.82.48-4.45-.72l2-3.24c.93.72,1.32.95,2.48.49Z"/>
      <path class="cls-3" d="M36.06,232.25c.78.72-4.66,4.96-5.93,3.94l-.45-1.34c1.75-1.54,4.01-2.33,6.37-2.6Z"/>
      <path class="cls-3" d="M207.7,119.97l.04,1.45-.99-.51v3.49c-1.53.28-.77-.47-1.05-1.18-.35-.91-.7-1.87-.96-2.81l-1.24,1.5-1.75-1.51c-.79-1.07,5.54-1.1,5.95-.44Z"/>
      <path class="cls-3" d="M34.06,230.75l-5.3,3.45-.96-.99-1.72.53c-.25-1.32.37-1.84,1.49-2.31l2.24.83c.64-1.67,2.73-1.48,4.25-1.51Z"/>
      <path class="cls-3" d="M254.54,133.52c.14.07-.11.8.83.93,1.58.22,3.25-.19,4.77-.54v1.49s-4.78-.38-4.78-.38l-1.2,1.38c-.03-.55-.01-1.47-.47-1.78-.67-.47-2.1.28-2.03-.7.83.24,2.35-.66,2.88-.39Z"/>
      <path class="cls-3" d="M42.05,60.03v1.99s-5.99-1.5-5.99-1.5c-.04-.94-.23-1.02.76-1.01,1.68.02,3.43.87,5.23.52Z"/>
      <path class="cls-3" d="M240.04,221.91c.65.53,2.85,3.32,2.63,4.34l-1.5-1.99-.74.99-3.24-3.74c.64-.6,2.25-.08,2.85.4Z"/>
      <path class="cls-3" d="M240.13,108.89l-2.94.55c.31-1.49,1.37-1.79.5-3.49l2.27.47.16,2.48Z"/>
      <polygon class="cls-3" points="24.08 91.97 23.32 93.97 21.35 92.59 18.59 93.47 18.59 91.97 24.08 91.97"/>
      <path class="cls-3" d="M62.27,112.94c1.67-.33,1.63,3.76.48,3.99-1.67.33-1.63-3.76-.48-3.99Z"/>
      <path class="cls-3" d="M240.55,226.4c.1.04.98,1.49,1.62,1.6-1.14,1.35-2.77,4.6-3.48,1.25l1.99-.74-1.99-2.25c.65-.03,1.24-.13,1.87.14Z"/>
      <polygon class="cls-3" points="147.85 101.45 147.83 105.93 145.36 106.45 146.86 105.45 146.86 101.97 145.36 101.46 147.85 101.45"/>
      <path class="cls-3" d="M67.5,225.76l-4.43,1.55v1.2s-2.56.23-2.56.23c1.67-2.17,4.27-3.16,6.98-2.98Z"/>
      <path class="cls-3" d="M83.97,113.44c.09.9.26,3.8-1.24,3.49-1.45-1.17-1.05-3.98,1.24-3.49Z"/>
      <path class="cls-3" d="M101.93,116.93c-2.29.49-2.69-2.32-1.24-3.49,1.5-.31,1.33,2.59,1.24,3.49Z"/>
      <path class="cls-3" d="M102.43,197.3c.24,1.54-.4.79-1.25.98-2.04.44-4.14.64-6.23.51,0-.77,1.75-.7,2.41-.83,1.66-.33,3.37-.65,5.07-.66Z"/>
      <path class="cls-2" d="M57.52,35.07c-.72,2.89-1.91,6.4-5.48,5.49-.92-.88,3.83-5.85,5.48-5.49Z"/>
      <path class="cls-2" d="M172.81,36.06c.74-1.44,1.19-2.97,1.8-4.44,1.79-4.34,3.72-9.27,5.04-13.93.42-1.49,2.28-12.4,2.9-12.58.96-.28.73.44.97,1,2.75,6.29,4.12,13.83,6.73,20.26.09,1.31-.14,1.18-.58.08-.82-2.03-1.9-2.77-2.85-4.61-4.75.67-.62,1.3-.15,1.86.41.49.49,2.15.62,2.87,2.66-2.54,1.85,2.21,2.74,3.52.41.7,1.33-.17,1.65.03.26.16,2.89,4.74,3.09,5.19.54,1.25-1.38.32-2.1.37-.27.02-.48.37-.64.37h-19.21Z"/>
      <path class="cls-2" d="M239.93,52.54c-.28-.05-5.22-2.03-5.28-2.31l1.79-4.67c.42,1.34.98,1.05,2.24.99l-2.48-2.28c1.57-2.02,1.18-4.06,1.71-6.23.89-3.66,2.9-7.22,1.78-10.96,1.94,2.23,2.8,5.97,3.87,8.86.45,1.21.87,2.23,1.26,3.25.51,1.35,2.88,6.09.88,5.89l-.02.72c1.86.55,1.23,1.93,1.76,2.71.89,1.3,2.76,2.17,2.73,4.03-3.04-.4-7.38.55-10.23,0ZM241.18,43.05c.2-1.25-.25-2.82-1.74-2.99l-1.25,2.99h3Z"/>
      <path class="cls-1" d="M48.04,202.79c-1.03,1.98.9,2.99.99,4.96-2.45,1.15-4.11,1.98-6.98,1.52v-1.49c3.69.1-.34-2.54-1.95-2.56l.4-1.7,7.54-.73Z"/>
      <path class="cls-1" d="M56.88,188.39c3.99-1.11,3.05,6.15-1.86,2.17-.14-.62,1.31-2.01,1.86-2.17Z"/>
      <path class="cls-3" d="M241.18,43.05h-3s1.25-2.99,1.25-2.99c1.49.17,1.94,1.74,1.74,2.99Z"/>
    </g>
  </g>
</svg>