<?xml version="1.0" encoding="UTF-8"?>
<svg id="Ebene_2" data-name="Ebene 2" xmlns="http://www.w3.org/2000/svg" viewBox="0 0 448.73 542.59">
  <defs>
    <style>
      .cls-1 {
        fill: none;
        stroke: #8bc8c7;
        stroke-miterlimit: 10;
      }
    </style>
  </defs>
  <g id="Ebene_1-2" data-name="Ebene 1">
    <g>
      <path class="cls-1" d="M323.36,341.18c-2.75.35-1.56,3.33-1.59,4.75-.03,1.3-1.05,2.77.06,4.03,1.96.98,3.11,3.01,5,3.99,3.29,1.7,13.58,3.71,14.41,7.57.3,1.41-.14,2.88.22,4.27.53,2.05,2.44,3.97,4.63,3.9s4.18.01,6.24-.04c-.08-.31-.14-.97.29-1.05l9.7-.44c-.19.91-.98.93-1.73,1.01-2.29.25-5.89.42-8.26.48.62,2.28,11.42,5.89,14.01,6.72,4.45,1.42,8.87,2.72,13.34,4.14,1.01.32,2.17-.02,3.24.25,2.69.68,4.08,5.73,5.37,7.86-1.93.53-3.77,3.87-5.62,4.63-1.16.47-2.5.17-3.38.62-1.08.54-1.43,3.98-4.02,4.06-.33,3.07.66,5.96,1.02,8.94.17,1.44-.39,4.28.26,5.26.49.74,2.49,0,.16,2.64-3.13,3.56-19.48,6.81-24.76,9.68-3.44,1.87-10.37,11.07-13.87,13.63-2.76,2.02-7.53,3.05-10.51,4.99,1.34,4.07,1.26,8.88-.71,12.77-1.24,2.45-3.63,4.04-4.79,6.2-2.91,5.37-4.69,10.69-8.29,16.19-.99,1.51-4.52,7.11-5.39,7.96-1.64,1.59-6.31,4.28-8.53,6.09-1.73,1.42-1.85,3.32-4.98,3.27-.94.98,3.07,2,3.43,3.32,0,2.9-2.51,1.64-2.94-.32-.9-.07-1.05-.23-1.01.75.12,2.93,5.95,2.95,3.7,7.28l-2.6,1.02c.41,3.37-.73,7.87-4.82,7.96-1.64.04-2.22-1.24-3.13-1.45-4.7-1.09-13.91,1.92-18.91,2.36-3.48.31-7.72-.42-10.96.03-2.71.38-5.85,1.42-8.97,1.57-1.55.07-3.14-1.16-4.24.21,4.23,2.06,8.84,3.39,13.09,5.38,8.31,3.88,17.82,10.26,26.36,13.11,1.65.55,3.42.52,4.97,1.04.67.23,1.87.7,1.53,1.69-11.03-2.04-20.7-8.63-30.79-13.41-7.48-3.54-15.6-8.09-23.88-8.59-12.92-.78-26.39,1.71-38.95-1.99-2.65,1.33-5.19,3.39-7.83,4.7-5.9,2.92-20.09,8.42-26.19,9.28-3.54.49-10.59-.45-13.7.79-2.57,1.02-5.45,4.83-7,6.96-.42.58-1.93,1.7-2,2.02M173.93,111.66l.07-5.28c2.63-.02.85-3.5,1.75-4.99.38-.64,1.93-1.03,2.57-1.68,3.29-3.3,1.64-5.3,2.2-9.04.28-1.83,2.26-4.85,2.35-6.62.07-1.49-2.5-2.89-1.12-6.15.96-2.25,9.63-7.66,12.11-8.37,8.07-2.3,17.91,5.66,24.6,4.12,9.65-2.22,16.21-11.35,19.37-20.09.82-2.28,1.99-1.97,1.48-5.27-.97-6.29-5.49-11.92-6.63-16.85-1.34-5.76,6-10.81,6.71-16.28.28-2.21-.53-5.59.6-7.4,1.97-.78,6.72-5.51,8.2-5.79,3.35-.64,5.3.7,7.97,1,8.35.97,17.07-1.95,25.42-2.48,7.27,1.3,16.94,8.96,24.04,8.45,1.7-.12,3.91-1.15,5.46-.99,2.45.26,8.35,1.39,10.94,2.01.16.04,1.11,1.67,2.85,1.24-.47,1.3-.51,2.73-.97,4.02-7.1,20.04-20.39,36.52-31.21,54.71-10.99,18.47-19.27,35.9-26.01,56.42-1.91,5.82-2.84,11.96-4.54,17.44-.97,3.13-5.46,8.56-7.22,11.77-3,5.47-5.43,12.23-8.58,17.4-2.39,3.91-5.42,3.6-7.49,8-5.18,10.99-3.87,17.13-4.38,28.59-.3,6.79-1.93,13.65-.65,20.48l-.69.66-2.68.07v7.73s16.69,19.79,16.69,19.79c7.05,15.97,11.62,31.98,8.26,49.63-.32,1.67-4.43,11.35-3.97,11.77,1.8-.39,3.08.83,4.73,1.02,5.3.6,12.4-.84,17.47.01,2.34.4,5.8,2.66,8.51,2.98,6.01.72,8.55-1.44,13.49-2.03,2.9-.35,9.6-.73,12.37-.36,4.86.67,7.03,3.63,10.7,6.28,1.52,1.09,7.66,4.09,7.66,5.83l-3,7.74M17.6,300.32c2.55-2.39-18.3-10.02-17.05-14.7.16-.61,1.78-3.53,2.1-4.39l-1-.74-.24-6.75,1.61.72-.37,6.77c3.73-10.16-.87-20.32,3.37-28.84.48-.95,2.35-2.03,1.4-3.16-.32-.38-1.27-.31-1.61-.62-.46-.41-.55-1.3-1.14-1.6-.86-.43-3.65.17-3.01-.99.97-.65,3.31-3.3,3.74-4.26.51-1.13.13-2.62.5-4,.66-2.47,2.44-4.43,3.77-6.62.44-.72,1.31.15.69-2.38,4.65-.67,5.17-3.92,4.3-7.97l1.45.47c.42-1.8,2.36-2.51,3.51-3.86.38-.44,2.67-3.41,2.77-3.61,2.05-4.48-3.32-10.33,8.24-7.99.06-1.96,1.02-4.09,1.92-5.83,1.11-2.15,5.8-8.64,7.74-9.75,3.71-2.12,9.12-3.52,12.9-6.08,3.25-2.19,3.17-5.44,7.79-6.19,5.6-.92,5.45.02,10.69-3.3,5.85-3.72,9.2-6.7,16.4-8.57,4.73-1.23,4.93.69,7.99,1.53,1.54.42,10.06-1.3,12.23-1.79s4.81-3.91,6.67-4.93,10.39-3.71,12.35-3.59c.54.03,5.96,2.86,6.26,3.27.69.93.55,2.36,1.1,3.4.77,1.45,3.5,6.07,5.09,5.92,2.01-.19,9.57-4.73,12.17-5.89,5.6-2.5,11.47-4.48,16.93-7.29,1.23-1.74.09-3.8,1.12-5.63,1.6-2.83,9.11-4.52,10.99-7.97-1.66-2.29-4.66-4.22-5.36-7.1-.98-4.06-3.12-15.15-3.03-18.89.04-1.46,1.36-3.76,1.35-5.44M59.6,435.85c0-.71-5.17-10.21-5.44-13.05-.2-2,.45-3.22.47-4.91.05-3.96.02-7.95-.13-11.9-2.11-2.57-3.95-5.27-5.88-7.97-4.1-5.71-13.23-17.2-14.38-24.24-.15-.91.47-1.68.31-2.74-.41-2.69-2.39-6.88-2.89-9.64-.21-1.18.07-2.52-.03-3.72-1.42-.58-1.45.91-1.83.99-.83.17-1.8-.06-2.66,0,1.21-1.57,4.98-1.46,3.26-4.51-.66-1.16-4.6,1.85-5.77,1.26l.6-2.65c.97-.64,4.91,0,5.4-.32.71-.45.67-1.79,1.12-2.15,1.15-.95,9.98-3.97,12.39-5.35,3.27-1.87,6.23-4.86,8.97-7.26-1.38-.37-2.85-.94-4.06-1.7-.66-.41-1.19-.06-.93-1.3l5.33,2.43,3.65-2.18-20.86-6.86c.13-2.06-2.23-3.05-2.49-3.5-1.37-2.35-3.92-12.45-4.1-15.18-.07-1.06.45-1.87.45-2.88-.23-.79-2.69-1.28-3.59-1.82-.53-.32-.78-1.32-1.89-1.7-1.02-.35-2.04-.21-2.98-.53-2.16-.73-3.01-2.27-4.03-2.15M140.03,539.27l-23.98,1.99c-1.89-1.9-4.47-2.85-6.5-4.49-.71-.57-6.68-6.89-6.94-7.33-.14-.23.47-3.99-1.35-4.95-2.12.85-4.34,1.44-6.58,1.91-23.72,4.93-46.82,9.59-70.75,14.17-.79.15-1.35.8-2.07.93-1.45.25-3.06-.31-4.49.4l-.72-1.88c1.13.21,1.96.6,3.18.48,2.44-.23,5.15-2,6.66-2.42,1.29-.36,7.29.08,9.27-.68l65.8-13.88c-4.39-5.63-7.01-13.07-10.87-18.84-2.46-3.67-6.29-7.06-8.82-10.67-8.4-11.98-6.75-20.37-6.27-34.16.03-.99.01-8.44-.24-8.8-.33-.45-1.34-.3-1.64-.58-.67-.64-.84-4.12-3.87-6.37-.84-.62-5-2.63-3.18-.07.17.24-7.85-9.43-7.06-8.18M11.5,282.34c-1.46,3.41,15.19,10.68,16.96,12.55,1.32,1.39.73,3.72,3.66,3.33M187.39,99.69c-.9.19-4.29,9.56-3.53,10.46l-2.34.76c.02,1.1-.3,2.15-.44,3.22s.94,1.04-.64,2.47c-.15,1.63,1.06,1.23,1.06,1.52.01.86-1.01,1.48-.92,2.4.05.57.78,1.27.87,2.11.42,3.96.7,7.8,1.77,11.72l6.52,7.51c.83,4.4-3.27,7.44-6.46,9.77-1.57,1.15-5.15,2.28-6.32,3.9-1.03,1.43-.04,3.25-.73,4.78-.35.76-2.51,2.4-3.05,3.44-7.34,3.13-14.84,6.09-22.11,9.37-3.65,1.64-9.23,6.13-13.08,4.95-5.39-1.64-7.94-6.23-10.61-10.77-.17-.29,0-.87-.13-1.01-1.32-1.45-5.81.36-7.4,1.09-2.79,1.29-5.6,4.56-7.7,5.29-2.33.8-14.86,3.41-16.8,3.13-1.19-.17-2.57-1.59-3.68-1.86-1.35-.33-7.69,1.71-9.3,2.42-3.25,1.42-7.03,5.61-10.68,7.3-2.78,1.29-7.86,1.39-9.58,2.41-.98.58-3.42,4.69-5.03,5.46-2.73,1.3-11.19,4.01-13.19,5.79-.48.43-4.12,5.64-4.25,6.24-.18.85.03,1.84-.02,2.72l2.99-.25c-1.06,1.38-3.15.24-4.3,1.2-.45.38-2.23,4.58-3.84,5.89-.86.7-2.73.95-3.38,1.87s-.4,2.13-.85,3.14c-1.23,2.73-1.15,3.49-1.85,5.62-.08.25-2.31,4.34-2.49,4.53-.2.22-.64.65-.76.48l.49-4.49-1.95.04-.05,10.45c-1.21-.27-.78-1.83-1.25-2.49-1.22-1.68-1.82.32-2.09.48-2.33,1.31-5.27,3.38-6.33,6.04-2.29,5.74,2.09,4.26,3.48,6.96.22.43-1.91,2.29.61,3.75-1.15.96-1.56,4.12-2.13,4.77-.65.74-1.88.2-2.32.78-.96,1.27-.07,4.46-.43,5.85-.15.57-1.28.51-1.47,1.15-.35,1.18,1.44,5.81,1.48,7.46.06,2.76-.89,10.11-1.66,12.82M225.12,220.35l-.54,1.18c1.17-2.12,1.67-5.54,1.87-7.49,1.5-14.48-1.13-21.7,5.3-36.17,2.64-5.95,5.9-5.72,8.12-8.86,3.12-4.42,5.92-13.42,8.85-18.63,1.26-2.25,4.7-5.8,5.43-8.06,1.58-4.85,2.57-10.5,4.3-15.68,12.77-38.14,29.79-64.53,51.1-97.32,1.03-1.59,5.84-11.75,4.79-12.84-3.24-1.13-6.18-.08-9.19,0-8.82.21-16.31-5.68-24.48-8.45-6.87,1.11-15.06,3-21.99,2.93-3.02-.03-8.28-2.8-10.78.72-.85,1.2-.26,2.62-.58,3.92-1.31,5.33-3.69,9.76-6.89,14.14-.09,1.11,3.14,5.55,3.76,7.21.77,2.05,3.85,13.04,3.65,14.61-.22,1.76-2.23,3.79-3.01,5.52-2.75,6.07-5.57,11.85-10.56,16.67-3.35,3.23-7.37,4.48-11.43,6.31s-3.11,3.18-8.58,1.8c-2.24-.57-5.67-1.5-7.83-2.16-4.98-1.52-6.16-4.06-12.06-1.63-3.86,1.59-2.19,2.41-2.8,5.15-.53,2.39-2.42,4.97-2.98,7.56-.49,2.27.04,4.61-.13,6.35-.09.94-1.46,1.94-.98,3.27M313.36,344.68c.69-1.51.77-3.59,1.28-4.97s2.97-2.69,1.22-4.76c-.28-.33-6.33-4.86-6.85-5.13-3.32-1.75-5.11-.46-8.39-.12-1.62.17-3.39-.22-4.96.04-5.3.86-7.51,2.67-14.02,1.97-3.15-.34-6.22-2.56-8.52-2.97-8.65-1.54-15.67.9-25.82-2.16-2.43-.73-4.52-1.95-6.87-2.37-.59-.53,3.29-6.63,3.69-7.55,6-13.73,5.6-28,1.17-42.02-3.23-10.23-7.05-15.53-13.88-23.48-2.75-3.2-6.54-5.75-8.6-9.54-.54-1.46.76-9.79.41-10.33-.23-.35,1.75-9.22,1.36-9.75M279.4,506.54h2v-8.24c0-.4,3.1-2.5,3.99-1.25l.57-4.43c.41.1.78.24,1.17-.04,11.09-8.01,18.94-14.23,25.33-26.66,1.09-2.13,1.66-5.05,2.81-7.18,2.09-3.84,5.7-5.38,5.6-10.37-.06-2.99-3.04-7.47-.53-10.04,2.13-2.18,10.16-4.34,13-6.48,4-5.05,9.52-8.46,13.62-13.41l21.27-7.9c.21-.35.2-7.2.06-8.13-.25-1.57-2.26-4.81-1.88-6.39.6-2.46,4.06-3.22,5.37-4.66,1.1-1.21.95-3.31,2.54-3.96-.5-2.47-2.96-1.46-4.64-1.87-6.87-1.67-14.09-5.86-20.63-7.84-3.12-.95-8.76-.36-10.71-2.41-.34-.36-4.56-6.25-4.73-6.62-.61-1.36.23-3.31-.74-4.25-1.48-1.43-8.85-2.66-11.27-4.22-.5-.32-7.85-7.45-8.2-7.9-1.75-2.26-.16-7.57-.11-8.23M37.59,302.52c.93,5.46.09,14.88,4.19,19.01.75.76,5.87,2.62,7.22,3.02,1.68.51,9.67,2.43,10.76,2.07,3.61-1.2-2.72-6.66.85-9.65,1.93-1.62,4.89-.94,6.34.86.1.13,1.49,2.49,1.62,2.74,2.45,4.76.83,3.45.07,7.41-.67,3.49-.28,7.26-2.78,10.21-1.32,1.56-6.79,5.59-8.8,7.18-3.08,2.44-7.72,2.83-4.95,7.78l-3.5,1c-.38-1.73,1.02-1.82,1.99-2.75-2.07-2.21-4.8,2.02-6.39,2.7-1.38.59-3.61.37-4.98,1.65-.04,6.18,3.07,11.99,3.7,18.22.05.51-.44,1.55-.31,1.65s1.06-.2,1.38.09c.38.33,2.01,5.45,2.63,6.54,2.11,3.73,5.66,8.17,8.27,11.82,1.54,2.14,7.18,8.07,7.56,9.92.48,2.38.46,10.83.16,13.37-.18,1.47-1.2,2.48-1.01,3.93.43,3.33,5.34,12.78,8.41,14.62,1.39.83,5.27,1.57,5.49,1.75s.72,3.04,1.91,3.36l6.17-.44c.89,2.11-1.87,2.8-2,3.34-.78,3.05,2.6,5.4,2.24,8.67l2.28.18.48,2.29-2.2-.44c-1.29.3-.64,3.42-.84,4.64-1.94,11.76-1.84,20.88,5.07,30.89,2.41,3.49,6.41,7.05,8.69,10.41,1.63,2.39,5.08,12.17,7.56,12.47.76.09,1.85-.51,2.24-.28.65.39.78,2.45,2.97,1.77-.24,1.15-1.8,1.06-2.37,1.62-1.32,1.31.47,4.32,1.7,5.33l10.53-2.84c12.6.17,21.24-7.31,31.41-12.55,2.72-1.4,7.24-3.16,10.19-3.54-1.33,1.04-3.47,2-5.04,2.71-8.69,3.92-16.51,9.8-26.07,12.39-5.16,1.4-10.67,3.02-15.85,4.18-1.24.28-2.93-.22-4.5.71.51,6.71,6.5,3,10.77,2.03,4.55-1.04,9.11-2.07,14.09-3.39,6.28-1.68,10.02-5.39,15.82-8.17.61-.29,1.02-.65,1.78-.46l-.33,1.51c-1.84.17-3.35,2.01-4.98,2.92-8.58,4.77-17.98,7.15-27.54,9.43-2.2.53-4.85.74-7.11,1.13.91,5.68,8.07,5.73,12.63,6.4l5.71-4.38,3.89-.89,2.44,1.85c1.17-.49,1.08-2.06,1.83-2.7.4-.34,1.23-.37,1.72-.78,1.08-.91,5.84-5.16,6.6-5.39,1.67-.51,7.46.54,9.86.41,3.83-.2,10.17-1.45,13.85-2.67,4.86-1.61,9.65-5.02,14.9-5.84.92-.89-2.62-2-3.1-2.15-5.29-1.57-16.24-4.04-21.4-2.61-.61.17-5.24,2.59-5.36,2.9-.17.44.32.9.14,1.36-.73,1.39-3.67-1.33-2.26-2.25,2.68.04,6.16-3.02,8.21-3.27,9.91-1.25,15.3,2.52,24.04,4.01,2.77.47,4.29-1.48,4.7-3.99-1-.12-2.21.21-3.15-.01-3.06-.73-7.28-2.23-10.96-3.11-.6-.14-1.05-.88-1.12-.88h-8.74c.07-2.38,1.86-.91,3.25-.95,5.96-.18,8.52,1.4,14.11,2.83,24.8,6.33,46.95,6.04,72.3,3.1,4.05-.47,11.53.88,14.93-.06,1.38-.38,6.96-2,8.24-1.93"/>
      <path class="cls-1" d="M33.58,340.73l-1.99-.49c.77,1.78-1.24,3.44-1.37,4.31-.68,4.46-.63,3.16-3.06,7-1.16,1.83-.46,3.58-3.83,3.22-1.13-.12-1.76-.97-2.51-1.04-1.08-.11-2.28,1.18-3.23-.26.99-.8,3.01-.86,3.97-1.52.74-.51.83-1.79,1.51-2.48,3.8-3.9,6.01-4.12,6.52-10.46.21-2.55-.27-3.95-1.01-6.27,2.61,1.92,3.31,5.38,4.99,7.99Z"/>
      <path class="cls-1" d="M21.59,317.75c.1.09,1.4,2.19,1.43,2.32.36,1.7-2.82,3.16-3.69,4.15-.64.73-4,4.77-4.26,5.23-.94,1.66-.13,3.44-3.16,4.26-2.93-2.02-.58-5.7,1.19-7.72,1.91-2.18,4.44-4.71,6.54-6.46.6-.5,1.05-2.52,1.94-1.78Z"/>
      <path class="cls-1" d="M410.78,392.26c-.19.29.43,1.09.34,1.61-.22,1.27-2.63,2.41-2.06-.65.46-2.51,2.13-3.36,2.56-4.9,1.54-5.5,3.87-10.13,5.39-15.59.58-2.08-.23-5.92,2.96-6.02l.55,1.51c-2.92,6.13-3.97,13.4-6.45,19.56-1.19,2.95-2.44,3.2-3.29,4.48Z"/>
      <path class="cls-1" d="M53.56,475.62c.23,1.04-.54,1.13-1.14,1.61-2.08,1.65-7.02,4.03-8.36,5.63-1.94,2.31-3.48,7.58-5.5,10.25l-.95-.05-.32-.97-2.21.53c-.28-1.33.34-.86.98-1.24,5.78-3.42,4.37-6.57,7.67-10.08.97-1.03,3.35-1.85,4.58-2.67,1.63-1.08,2.53-3.57,5.24-2.99Z"/>
      <path class="cls-1" d="M379.27,379.7c.38-3.92,2.26-8.59,4.14-12.09.33-.6.74-1.53,1.59-1.4,1.32.21.17,1.19.06,1.55-1.33,4.27-2.75,8.61-5.8,11.94Z"/>
      <path class="cls-1" d="M288.35,289.28c.59-.55,1.42.2,1.87.87,1.06,1.6,2.5,2.99,1.52,4.76-.73,1.33-2.48,1.23-3.39.09-.26-.9,1.04-1.81,1.05-2.98,0-1.02-1.44-2.38-1.05-2.74Z"/>
      <path class="cls-1" d="M10.61,268.79v2.5c-1.51-.24-5.68,1.5-6.49-.25-.36-.78,1.76-1.56,2.27-1.71,1.39-.41,2.76-.65,4.22-.53Z"/>
      <path class="cls-1" d="M77.54,472.12c.47,1.94-2.34.23-2.99,1.75.12,1.64,1.66,1.64.99,3.74l-2.49-1.01.99-1.74-3.48-2c-.68-1.43,2.66-.27,3.19-.29,1.13-.04,2.49-.79,3.8-.45Z"/>
      <path class="cls-1" d="M394.75,390.19c-1.27.66-7.45-1.48-5.99-2.99,2.82-.13,5.58-.57,5.99,2.99Z"/>
      <path class="cls-1" d="M379.26,381.2c.21,2.9-2.36,5.53-4.99,3.24-.16-.75,4.11-4.11,4.99-3.24Z"/>
      <path class="cls-1" d="M32.51,360.29l2.57,6.41-1.92-.08c-1.75-2.32-.39-4.99-3.08-6.16l2.42-.17Z"/>
      <path class="cls-1" d="M9.11,391.69c.24-1.66,1.57-3,2.19-4.55.66-1.63.58-4.34,2.29-5.44l-1.09,6.14-3.39,3.85Z"/>
      <path class="cls-1" d="M271.86,265.79c-2.49-1.97-.47-5.84-2.49-7.99l2.44.78.05,7.21Z"/>
      <path class="cls-1" d="M46.57,414.17c.94,4.71-1.25,6.25-2.98,1.29l2.98-1.29Z"/>
      <path class="cls-1" d="M22.09,477.62c.14,2.48-2.34,6.88-4.98,4.24.65-.81,1.76-.77,2.53-1.45,1.02-.91.8-2.84,2.45-2.79Z"/>
      <path class="cls-1" d="M280.86,279.29c2.88.24,3.98,2.24,1.24,3.99-1.61.35-1.28-3.07-1.24-3.99Z"/>
      <path class="cls-1" d="M31.58,327.24l-2.99-7.99c1.3-1.42,3.65,7.14,2.99,7.99Z"/>
      <path class="cls-1" d="M65.55,470.12c.74.77-.24.86-.64,1.12-.57.36-4,2.25-4.35,1.87v-1.99c.83-.12,1.88.2,2.65.01.4-.1,1.04-2.38,2.34-1.01Z"/>
      <path class="cls-1" d="M444.21,367.71l2.74-3.5c.42-.78,1.17-.13,1.26.27.34,1.63-2.49,3.5-3.99,3.24Z"/>
      <polygon class="cls-1" points="37.58 386.69 35.59 385.19 34.84 387.19 34.11 384.72 37.1 384.41 37.58 386.69"/>
      <path class="cls-1" d="M400.74,391.19l-4.16-.49-.33-1.5c.18-.19,5,.25,4.49,1.99Z"/>
      <path class="cls-1" d="M42.08,358.71l-1.42.08c.14,3.45-2.86-.33-2.08-1.08l2.7-.41.8,1.41Z"/>
      <path class="cls-1" d="M48.94,311.38c2.16,2.26-1.41,5.25-2.89,4.16s-.71-7.93,2.89-4.16Z"/>
      <path class="cls-1" d="M317.37,356.28l1.46-.33c1.51.66,1.55,5.92-.27,6.76-1.96.41-1.13-5.4-1.19-6.43Z"/>
      <path class="cls-1" d="M45.57,308.26v-4l2.5.25c1.03,1,1.16,2.13.26,3.26l-2.76.49Z"/>
      <path class="cls-1" d="M59.04,286.28l.52,2.49,1.99-.5-2,2,1.5,1c.59.62-1.42,1.99-1.99,2.01l.06.94c3.23,1.51-1.87,1.91-2.8,3.06-.45.55-.39,1.59-.83,2.19-.65.89-1.94,1.09-2.18,2.79l-1.12-1.75c.52-.77,1.26-1.33,1.66-2.21,1.41-3.14,1.9-5.54,2.74-8.67.06-.24,1.87-1.31.98-3.36h1.48Z"/>
      <path class="cls-1" d="M208.92,206.84c-.17,1.76.33,3.95-.12,5.63-.26.97-4.35,6.48-5.23,6.75-1.18.37-6.13.65-6.92-.37l.37-1.94c5.86,1.19,10.31-4.76,10.41-10.07h1.49Z"/>
      <path class="cls-1" d="M185.84,184.46l-.86-.13-.03-.71c1.94-1,3.12-1.82,4.24-3.75l1.24.99v-2.99s2.78.99,2.78.99c.97,1.58-2.4,4.46-3.2,5.82-.55.93-1.67,6.66-3.85,4.71-1.73-1.54,0-4.59-.32-4.94Z"/>
      <path class="cls-1" d="M100.72,264.01c-.11.06-.15.51-.59.75-1.98,1.06-5.16.39-5.11,4.53-2.47-.11-1.06-2.22-.21-3.47,1.09-1.61,4.25-6,5.71-6.75.95-.49,2.25-.19,3.27-.64,2.41,3.22-.69,4.32-3.07,5.57Z"/>
      <path class="cls-1" d="M65.55,278.78l-2.28.06c-1.24-3.08-3.93-3.44-1.93-7.02.32-.58,1.02-.96,1.43-1.59.3-.46.23-1.38.29-1.45.19-.18,3.74.77,4.73-1.49,2.98-.04-3.21,6.57-3.46,7.02-1.96,3.64,1.63,3.98,1.21,4.45Z"/>
      <path class="cls-1" d="M123.5,213.34v3c1.04-.23,2.05-.93,2.5.5-2-.13-3.38,2.96-4.19,4.56-1.22,2.4-.08,3.6-4.28,3.42-.43-1.65-.61-3.37.26-4.94,1.37-2.46,6.16-2.05,4.21-6.53h1.49Z"/>
      <path class="cls-1" d="M158.86,287.66c-.33.3-2.7.6-3.38.41l-6.99-4.78c2.48-.43,3.25,2.35,5.69,2.5,1.77-1.94,6.08-5.7,7.75-1.83-.46,1.09-1.74,1.41-2.44,2.1-.49.48-.39,1.39-.62,1.6Z"/>
      <path class="cls-1" d="M192.83,216.44c.29.53.06,1.29.11,1.89-.37.39-4.34-.95-5.27-.79-.77.13-1.2,1.48-1.95,1.6-.55.09-2.54-.44-2.75-1.11-1.16-3.64,8.52-4.02,9.86-1.59Z"/>
      <path class="cls-1" d="M159.47,205.35c.4,3.21-1.51,3.21-3.22,4.52-1.12.86-1.67,3.59-4.26,1.23,1.9-3.42,2.78-7.13,7.48-5.75Z"/>
      <path class="cls-1" d="M104.51,288.77l-2.24-.99.75,1.74c-3.1,2.54-2.55-2.25-2.5-4.25,3.29.73,3.67-1.09,4.01-3.99l2.46.81-2.47,6.68Z"/>
      <path class="cls-1" d="M187.82,197.73c-.14.15-3.41,2.13-3.62,2.14-3.79.05,2.79-7.91,4.48-8.02,1.46.37-.55,5.56-.86,5.88Z"/>
      <path class="cls-1" d="M34.58,296.27l-1.43.04-.67,3.36-3.39,1.1,1.5-6.49,1.99,1-.49-2.5c.68-.73,2.97,2.63,2.5,3.49Z"/>
      <path class="cls-1" d="M83.46,289.38c.17.27-.25.86-.17,1.12.22.71.92.93.74,1.77-.41.37-3.29-.79-2.98.74.53,2.56,3.24.06,2.98,2.26-1.93.11-4.58.36-4.49-2.19.07-1.81,2.17-2.95.91-4.74l-1.92-1.06c1.08-.66,4.5,1.44,4.92,2.1Z"/>
      <path class="cls-1" d="M139.98,258.8c-4.11-1.16-2.85-5.43.53-6.71,1.1-.42,6.19-1.62,4.48.98-.8.32-1.7.2-2.5.5-6.46,2.41-1.34,3.93-2.51,5.24Z"/>
      <path class="cls-1" d="M153.47,425.66c.61,4.5-5.03,4.96-7.99,3.24l3.63-1.36c1.38-1.03,2.44-2.19,4.36-1.88Z"/>
      <path class="cls-1" d="M92.91,243.45c2.22-.51,4.99-.48,3.9,2.39-1.95,1.2-4.21.65-6.3.23-1.6-.99,1.61-2.44,2.4-2.62Z"/>
      <path class="cls-1" d="M128.75,281.28c-.54-.06-1.39-.8-2.25-.5,1.69-2.17,5.49-.56,7.72-.47,2.58.1,5.19-.12,7.76-.02.04.32-.66.99-.75.99-3.81,0-8.88.42-12.49,0Z"/>
      <path class="cls-1" d="M173.95,336.23c-.07,1.56,1.78,3.58.79,5.02-.84,1.22-6.07-.43-4.76-2,1.97-.02,2.68-1.12,2.48-3.03h1.49Z"/>
      <path class="cls-1" d="M168.34,465c1.01-1.03-.11-3.36,1.37-3.37.53.8,1.91,2.76,1.7,3.64-.37,1.52-5.01,3.76-5.44,1.11.46-.87,1.89-.89,2.37-1.38Z"/>
      <path class="cls-1" d="M208.42,273.54c-.07.26-1.52,1.57-1.99,1.75.85-4.72-.03-8.87,3-12.98,2.97.04-1.01,3.02-1.01,3.24,0,1.82.37,6.69,0,7.99Z"/>
      <path class="cls-1" d="M106.71,353.41c-1.01,1.3-1.4,2.28-2.17,3.58-.4.67-.39,1.46-1.51,1.23-.6-2.26,1.02-2.91,1.82-4.42.29-.55,2.6-5.66,3.17-5.07,1.06,3.18.09,2.88-1.3,4.68Z"/>
      <path class="cls-1" d="M140.99,277.78l-.42-2.2c.45-2.04,9.5-3.7,5.1.14l-4.68,2.06Z"/>
      <path class="cls-1" d="M107.01,242.82c1.23,1.46-4.14,3.5-5.29,3.47-.59-.01-.93-.24-1.16-.78l.17-1.73,6.28-.96Z"/>
      <path class="cls-1" d="M52.56,259.8c-.05.88.16,1.88-.01,2.73-.58,3-5.02,2.95-3.74.26l3.75-2.99Z"/>
      <path class="cls-1" d="M178.45,290.28l-4.75,1.53-7.23-1.29c.04-1.54,6.28.25,7.26.27,1.53.03,3.09-.84,4.72-.51Z"/>
      <path class="cls-1" d="M114.51,323.74l-1.97-.02c.26-2.38-2.06-3.54-1.52-5.97,2.95,1.74,3.46,2.57,3.49,5.99Z"/>
      <path class="cls-1" d="M88.53,323.25l-1.06,1.92-.67.06c-1.6-2.44-4.58-.22-4.26-3.98l5.99,2Z"/>
      <path class="cls-1" d="M37.08,262.3l-2.49-1.01c-.41-1.64,1.11-.54,1.52-1.31s.54-2.65.03-3.38-1.94.33-1.54-1.29c4.5-.36,2.76,4.11,2.49,6.99Z"/>
      <path class="cls-1" d="M82.46,298.84c1.79,1.48.94,5.82-.42,3.58-.22-.37-.06-1.12-.71-1.71-.52-.47-1.76.31-2.28-.69l3.42-1.17Z"/>
      <path class="cls-1" d="M218.41,249.81c.06,2.42-2.15,5.1-3.99,6.49,0-1.31.86-2.63,1.49-3.75.44-.79,1.38-2.93,2.5-2.74Z"/>
      <polygon class="cls-1" points="264.37 148.89 264.37 150.38 261.38 150.89 260.37 147.66 261.62 146.9 262.84 149.19 264.37 148.89"/>
      <path class="cls-1" d="M189.7,231.83l1.23.75c-1.25.55-1.85,4.04-3.23,3.74-2.33-.5,1.18-3.96,2-4.49Z"/>
      <path class="cls-1" d="M236.39,361.22c-.44,3.63-2.85,3.84-5.99,3.99l5.99-3.99Z"/>
      <path class="cls-1" d="M336.3,393.19c.79.85-2.31,5.2-3.99,4.49-.42-.38,3.26-5.28,3.99-4.49Z"/>
      <polygon class="cls-1" points="323.31 411.17 322.79 412.9 323.81 413.91 321.32 415.17 321.05 412.18 323.31 411.17"/>
      <path class="cls-1" d="M246.16,352c-.34.37-.86.49-.78,1.21l-.99-.73,5.99-6.75c-.83,2.23-2.62,4.55-4.22,6.28Z"/>
      <path class="cls-1" d="M60.06,277.77l-1.49.76c-.03.69,3.43,1.21,2.99,2.75l-3.96-1.54.47-2.95,1.99.99Z"/>
      <path class="cls-1" d="M211.41,413.15c-.07.1-1.27.1-1.46.81s1.24,4.07-1.52,4.2c.65-2.28,1.39-3.98,1-6.49.93-.4,2.54.7,1.99,1.48Z"/>
      <path class="cls-1" d="M172.96,257.3c-1.06-.81,3.67-3.28,4.49-1.24.35,1.75-3.62,1.21-4.49,1.24Z"/>
      <path class="cls-1" d="M126.49,335.24c-1.68-.57-1.37-2.42-1.99-3.65-.29-.57-2.23-1.32-1.5-3.34,1.8,1.71,3.14,4.55,3.49,6.99Z"/>
      <path class="cls-1" d="M69.55,300.26c-1.52.28-.77-.46-1.04-1.18-.67-1.73-1.7-3.07-1.95-4.81,1.04-1.18,3.58,5.07,2.99,5.99Z"/>
      <path class="cls-1" d="M193.43,278.29c.16.15-1.59,3.43-1.86,3.87-.56.92-.48.69-1.63.62.68-1.68,1.01-4.77,3.49-4.49Z"/>
      <path class="cls-1" d="M80.54,321.75c.78,1.88-1.31,2.01-1.29,3.23l1.3,3-1,.25c-1.53-2.09-1.33-3.11-.17-5.41.35-.7-.23-1.34,1.16-1.07Z"/>
      <path class="cls-1" d="M162.22,249.31c2.36.21.96,3.79-.5,3.49s-.43-3,.5-3.49Z"/>
      <polygon class="cls-1" points="208.92 286.27 209.43 283.78 211.87 285.08 211.13 286.72 208.92 286.27"/>
      <path class="cls-1" d="M77.48,308.2c-3.25,1.26-5.23.17-4.22-3.47l3.81-.25.41,3.72Z"/>
      <path class="cls-1" d="M199.98,234.87c1.98-1.22,3.48,2.17,1.98,3.23-2.46,1.74-3.18-2.49-1.98-3.23Z"/>
    </g>
  </g>
</svg>